<mxfile host="app.diagrams.net" modified="2022-04-25T19:27:51.961Z" agent="5.0 (Windows NT 10.0; Win64; x64) AppleWebKit/537.36 (KHTML, like Gecko) Chrome/98.0.4758.141 YaBrowser/22.3.3.852 Yowser/2.5 Safari/537.36" etag="FqFCmpaNhrq2v7b1lQ15" version="17.4.6" type="github">
  <diagram id="6a731a19-8d31-9384-78a2-239565b7b9f0" name="Page-1">
    <mxGraphModel dx="1038" dy="575" grid="1" gridSize="10" guides="1" tooltips="1" connect="1" arrows="1" fold="1" page="1" pageScale="1" pageWidth="1169" pageHeight="827" background="none" math="0" shadow="0">
      <root>
        <mxCell id="0" />
        <mxCell id="1" parent="0" />
        <mxCell id="80rFQ62TB0ss0-_OXhD9-63" style="edgeStyle=orthogonalEdgeStyle;rounded=0;orthogonalLoop=1;jettySize=auto;html=1;exitX=0.5;exitY=1;exitDx=0;exitDy=0;entryX=0.5;entryY=0;entryDx=0;entryDy=0;" edge="1" parent="1" source="80rFQ62TB0ss0-_OXhD9-55" target="80rFQ62TB0ss0-_OXhD9-56">
          <mxGeometry relative="1" as="geometry" />
        </mxCell>
        <mxCell id="80rFQ62TB0ss0-_OXhD9-55" value="НАЧАЛО" style="rounded=1;whiteSpace=wrap;html=1;" vertex="1" parent="1">
          <mxGeometry x="380" y="30" width="120" height="60" as="geometry" />
        </mxCell>
        <mxCell id="80rFQ62TB0ss0-_OXhD9-64" style="edgeStyle=orthogonalEdgeStyle;rounded=0;orthogonalLoop=1;jettySize=auto;html=1;exitX=0.5;exitY=1;exitDx=0;exitDy=0;entryX=0.5;entryY=0;entryDx=0;entryDy=0;" edge="1" parent="1" source="80rFQ62TB0ss0-_OXhD9-56" target="80rFQ62TB0ss0-_OXhD9-57">
          <mxGeometry relative="1" as="geometry" />
        </mxCell>
        <mxCell id="80rFQ62TB0ss0-_OXhD9-56" value="&lt;div&gt;numbers = [77, 46, 11, 89, 48, 14, 67, 73, 22, 26]&amp;nbsp;&lt;/div&gt;&lt;div&gt;sorted_size = 0&lt;/div&gt;&lt;div&gt;size = numbers.length = 10&lt;/div&gt;" style="shape=parallelogram;perimeter=parallelogramPerimeter;whiteSpace=wrap;html=1;fixedSize=1;" vertex="1" parent="1">
          <mxGeometry x="280" y="120" width="320" height="60" as="geometry" />
        </mxCell>
        <mxCell id="80rFQ62TB0ss0-_OXhD9-65" value="ДА" style="edgeStyle=orthogonalEdgeStyle;rounded=0;orthogonalLoop=1;jettySize=auto;html=1;exitX=0.5;exitY=1;exitDx=0;exitDy=0;entryX=0.5;entryY=0;entryDx=0;entryDy=0;" edge="1" parent="1" source="80rFQ62TB0ss0-_OXhD9-57" target="80rFQ62TB0ss0-_OXhD9-58">
          <mxGeometry relative="1" as="geometry" />
        </mxCell>
        <mxCell id="80rFQ62TB0ss0-_OXhD9-80" value="НЕТ" style="edgeStyle=orthogonalEdgeStyle;rounded=0;orthogonalLoop=1;jettySize=auto;html=1;entryX=0.5;entryY=0;entryDx=0;entryDy=0;" edge="1" parent="1" source="80rFQ62TB0ss0-_OXhD9-57" target="80rFQ62TB0ss0-_OXhD9-77">
          <mxGeometry x="-0.8763" relative="1" as="geometry">
            <Array as="points">
              <mxPoint x="840" y="260" />
              <mxPoint x="840" y="970" />
              <mxPoint x="445" y="970" />
            </Array>
            <mxPoint as="offset" />
          </mxGeometry>
        </mxCell>
        <mxCell id="80rFQ62TB0ss0-_OXhD9-57" value="sorted_size &amp;lt; size - 1" style="rhombus;whiteSpace=wrap;html=1;" vertex="1" parent="1">
          <mxGeometry x="360" y="220" width="160" height="80" as="geometry" />
        </mxCell>
        <mxCell id="80rFQ62TB0ss0-_OXhD9-66" style="edgeStyle=orthogonalEdgeStyle;rounded=0;orthogonalLoop=1;jettySize=auto;html=1;exitX=0.5;exitY=1;exitDx=0;exitDy=0;entryX=0.5;entryY=0;entryDx=0;entryDy=0;" edge="1" parent="1" source="80rFQ62TB0ss0-_OXhD9-58" target="80rFQ62TB0ss0-_OXhD9-59">
          <mxGeometry relative="1" as="geometry" />
        </mxCell>
        <mxCell id="80rFQ62TB0ss0-_OXhD9-58" value="index = 0" style="rounded=0;whiteSpace=wrap;html=1;" vertex="1" parent="1">
          <mxGeometry x="380" y="340" width="120" height="60" as="geometry" />
        </mxCell>
        <mxCell id="80rFQ62TB0ss0-_OXhD9-67" value="ДА" style="edgeStyle=orthogonalEdgeStyle;rounded=0;orthogonalLoop=1;jettySize=auto;html=1;exitX=0.5;exitY=1;exitDx=0;exitDy=0;entryX=0.5;entryY=0;entryDx=0;entryDy=0;" edge="1" parent="1" source="80rFQ62TB0ss0-_OXhD9-59" target="80rFQ62TB0ss0-_OXhD9-60">
          <mxGeometry relative="1" as="geometry" />
        </mxCell>
        <mxCell id="80rFQ62TB0ss0-_OXhD9-73" value="НЕТ" style="edgeStyle=orthogonalEdgeStyle;rounded=0;orthogonalLoop=1;jettySize=auto;html=1;exitX=1;exitY=0.5;exitDx=0;exitDy=0;entryX=0.5;entryY=0;entryDx=0;entryDy=0;" edge="1" parent="1" source="80rFQ62TB0ss0-_OXhD9-59" target="80rFQ62TB0ss0-_OXhD9-71">
          <mxGeometry x="-0.8918" relative="1" as="geometry">
            <Array as="points">
              <mxPoint x="710" y="470" />
              <mxPoint x="710" y="860" />
            </Array>
            <mxPoint as="offset" />
          </mxGeometry>
        </mxCell>
        <mxCell id="80rFQ62TB0ss0-_OXhD9-59" value="index &amp;lt; (size - 1 - sorted_size)" style="rhombus;whiteSpace=wrap;html=1;" vertex="1" parent="1">
          <mxGeometry x="315" y="430" width="250" height="80" as="geometry" />
        </mxCell>
        <mxCell id="80rFQ62TB0ss0-_OXhD9-68" value="ДА" style="edgeStyle=orthogonalEdgeStyle;rounded=0;orthogonalLoop=1;jettySize=auto;html=1;" edge="1" parent="1" source="80rFQ62TB0ss0-_OXhD9-60" target="80rFQ62TB0ss0-_OXhD9-61">
          <mxGeometry relative="1" as="geometry" />
        </mxCell>
        <mxCell id="80rFQ62TB0ss0-_OXhD9-76" value="НЕТ" style="edgeStyle=orthogonalEdgeStyle;rounded=0;orthogonalLoop=1;jettySize=auto;html=1;entryX=0.5;entryY=0;entryDx=0;entryDy=0;" edge="1" parent="1" source="80rFQ62TB0ss0-_OXhD9-60" target="80rFQ62TB0ss0-_OXhD9-69">
          <mxGeometry x="-0.88" relative="1" as="geometry">
            <Array as="points">
              <mxPoint x="660" y="590" />
              <mxPoint x="660" y="750" />
              <mxPoint x="440" y="750" />
            </Array>
            <mxPoint as="offset" />
          </mxGeometry>
        </mxCell>
        <mxCell id="80rFQ62TB0ss0-_OXhD9-60" value="numbersfindex] &amp;gt; numbers[index + 1]" style="rhombus;whiteSpace=wrap;html=1;" vertex="1" parent="1">
          <mxGeometry x="320" y="550" width="240" height="80" as="geometry" />
        </mxCell>
        <mxCell id="80rFQ62TB0ss0-_OXhD9-75" style="edgeStyle=orthogonalEdgeStyle;rounded=0;orthogonalLoop=1;jettySize=auto;html=1;exitX=0.5;exitY=1;exitDx=0;exitDy=0;entryX=0.5;entryY=0;entryDx=0;entryDy=0;" edge="1" parent="1" source="80rFQ62TB0ss0-_OXhD9-61" target="80rFQ62TB0ss0-_OXhD9-69">
          <mxGeometry relative="1" as="geometry" />
        </mxCell>
        <mxCell id="80rFQ62TB0ss0-_OXhD9-61" value="&lt;div&gt;temp = numbersfindex]&lt;/div&gt;&lt;div&gt;&lt;span&gt;			&lt;/span&gt;numbersfindex] = numbersfindex + 1]&lt;/div&gt;&lt;div&gt;&lt;span&gt;			&lt;/span&gt;numbersfindex + 1] = temp&lt;/div&gt;" style="rounded=0;whiteSpace=wrap;html=1;" vertex="1" parent="1">
          <mxGeometry x="315" y="660" width="250" height="60" as="geometry" />
        </mxCell>
        <mxCell id="80rFQ62TB0ss0-_OXhD9-72" style="edgeStyle=orthogonalEdgeStyle;rounded=0;orthogonalLoop=1;jettySize=auto;html=1;entryX=0;entryY=0.5;entryDx=0;entryDy=0;" edge="1" parent="1" source="80rFQ62TB0ss0-_OXhD9-69" target="80rFQ62TB0ss0-_OXhD9-59">
          <mxGeometry relative="1" as="geometry">
            <Array as="points">
              <mxPoint x="240" y="800" />
              <mxPoint x="240" y="470" />
            </Array>
          </mxGeometry>
        </mxCell>
        <mxCell id="80rFQ62TB0ss0-_OXhD9-69" value="index = index + 1" style="rounded=0;whiteSpace=wrap;html=1;" vertex="1" parent="1">
          <mxGeometry x="315" y="770" width="250" height="60" as="geometry" />
        </mxCell>
        <mxCell id="80rFQ62TB0ss0-_OXhD9-74" style="edgeStyle=orthogonalEdgeStyle;rounded=0;orthogonalLoop=1;jettySize=auto;html=1;entryX=0;entryY=0.5;entryDx=0;entryDy=0;" edge="1" parent="1" source="80rFQ62TB0ss0-_OXhD9-71" target="80rFQ62TB0ss0-_OXhD9-57">
          <mxGeometry relative="1" as="geometry">
            <mxPoint x="140" y="174" as="targetPoint" />
            <Array as="points">
              <mxPoint x="170" y="922" />
              <mxPoint x="170" y="260" />
            </Array>
          </mxGeometry>
        </mxCell>
        <mxCell id="80rFQ62TB0ss0-_OXhD9-71" value="sorted_size = sorted_size + 1" style="rounded=0;whiteSpace=wrap;html=1;" vertex="1" parent="1">
          <mxGeometry x="320" y="892" width="250" height="60" as="geometry" />
        </mxCell>
        <mxCell id="80rFQ62TB0ss0-_OXhD9-79" style="edgeStyle=orthogonalEdgeStyle;rounded=0;orthogonalLoop=1;jettySize=auto;html=1;exitX=0.5;exitY=1;exitDx=0;exitDy=0;entryX=0.5;entryY=0;entryDx=0;entryDy=0;" edge="1" parent="1" source="80rFQ62TB0ss0-_OXhD9-77" target="80rFQ62TB0ss0-_OXhD9-78">
          <mxGeometry relative="1" as="geometry" />
        </mxCell>
        <mxCell id="80rFQ62TB0ss0-_OXhD9-77" value="print(numbers)" style="rounded=0;whiteSpace=wrap;html=1;" vertex="1" parent="1">
          <mxGeometry x="320" y="1000" width="250" height="60" as="geometry" />
        </mxCell>
        <mxCell id="80rFQ62TB0ss0-_OXhD9-78" value="КОНЕЦ" style="rounded=1;whiteSpace=wrap;html=1;" vertex="1" parent="1">
          <mxGeometry x="385" y="1100" width="120" height="60" as="geometry" />
        </mxCell>
      </root>
    </mxGraphModel>
  </diagram>
</mxfile>
